<svg xmlns="http://www.w3.org/2000/svg" xmlns:xlink="http://www.w3.org/1999/xlink" width="940" zoomAndPan="magnify" viewBox="0 0 705 591.000005" height="788" preserveAspectRatio="xMidYMid meet" version="1.0"><defs><g/><clipPath id="ab8b5eaa7c"><path d="M 48 138.582031 L 523 138.582031 L 523 407 L 48 407 Z M 48 138.582031 " clip-rule="nonzero"/></clipPath><clipPath id="8bbe0b9bee"><path d="M 518 377 L 594 377 L 594 451.554688 L 518 451.554688 Z M 518 377 " clip-rule="nonzero"/></clipPath><clipPath id="60834ce0cd"><path d="M 210 377 L 286 377 L 286 451.554688 L 210 451.554688 Z M 210 377 " clip-rule="nonzero"/></clipPath></defs><path fill="#000000" d="M 544.824219 300.582031 L 553.746094 252.023438 L 588.050781 252.023438 L 616.082031 300.582031 Z M 604.226562 232.324219 L 522.175781 232.324219 L 490.261719 406.117188 L 503.839844 406.117188 C 511.917969 380.59375 537.503906 360.828125 564.019531 360.828125 C 578.523438 360.828125 591.238281 366.511719 599.859375 376.851562 C 606.640625 384.980469 610.164062 395.132812 610.199219 406.117188 L 641.097656 406.117188 L 657.507812 316.722656 L 604.226562 232.324219 " fill-opacity="1" fill-rule="nonzero"/><g clip-path="url(#ab8b5eaa7c)"><path fill="#000000" d="M 251.628906 138.597656 C 237.359375 138.597656 224.398438 145.085938 215.789062 155.464844 L 97.132812 155.464844 C 91.230469 155.464844 86.441406 160.253906 86.441406 166.160156 C 86.441406 172.066406 91.230469 176.851562 97.132812 176.851562 L 263.292969 176.851562 L 263.292969 176.765625 L 326.421875 176.765625 C 332.179688 176.765625 337.203125 181.480469 337.042969 187.234375 C 336.96875 189.941406 335.839844 192.378906 334.0625 194.171875 C 332.207031 196.011719 329.660156 197.15625 326.839844 197.15625 L 59.191406 197.15625 C 54.03125 197.15625 49.609375 200.84375 48.675781 205.917969 C 47.46875 212.488281 52.511719 218.542969 59.191406 218.542969 L 292.144531 218.542969 C 297.910156 218.542969 302.941406 223.261719 302.785156 229.023438 C 302.714844 231.730469 301.585938 234.171875 299.804688 235.964844 C 297.953125 237.804688 295.402344 238.949219 292.589844 238.949219 L 119.5 238.949219 C 114.039062 238.949219 109.355469 242.847656 108.371094 248.21875 C 107.089844 255.175781 112.429688 261.585938 119.5 261.585938 L 335.523438 261.585938 C 341.289062 261.585938 346.320312 266.304688 346.171875 272.066406 C 346.09375 274.773438 344.964844 277.214844 343.183594 279.007812 C 341.332031 280.847656 338.785156 281.992188 335.96875 281.992188 L 143.917969 281.992188 C 139.273438 281.992188 135.292969 285.3125 134.457031 289.882812 C 133.367188 295.792969 137.910156 301.238281 143.917969 301.238281 L 226.371094 301.238281 C 237.453125 301.238281 246.457031 305.8125 246.457031 311.441406 C 246.457031 314.261719 244.210938 316.804688 240.574219 318.644531 C 236.929688 320.5 231.902344 321.632812 226.371094 321.632812 C 199.058594 321.632812 175.648438 341.132812 170.710938 367.996094 L 163.710938 406.117188 L 196.265625 406.117188 C 204.359375 380.578125 229.925781 360.828125 256.445312 360.828125 C 270.949219 360.828125 283.664062 366.511719 292.285156 376.851562 C 299.0625 384.980469 302.589844 395.132812 302.625 406.117188 L 473.109375 406.117188 L 522.242188 138.597656 L 251.628906 138.597656 " fill-opacity="1" fill-rule="nonzero"/></g><g clip-path="url(#8bbe0b9bee)"><path fill="#000000" d="M 564.019531 377.695312 C 546.34375 377.695312 529.207031 389.753906 521.835938 406.117188 C 520.605469 408.8125 519.660156 411.632812 519.003906 414.550781 C 518.898438 415.054688 518.800781 415.558594 518.695312 416.0625 C 518.261719 418.425781 518.058594 420.738281 518.074219 422.984375 C 518.105469 430.011719 520.296875 436.40625 524.480469 441.429688 C 529.847656 447.859375 537.976562 451.398438 547.371094 451.398438 C 565.046875 451.398438 582.183594 439.320312 589.554688 422.984375 C 590.789062 420.28125 591.730469 417.449219 592.390625 414.550781 L 592.691406 413.03125 C 593.128906 410.667969 593.332031 408.355469 593.316406 406.117188 C 593.28125 399.0625 591.089844 392.671875 586.90625 387.648438 C 581.539062 381.21875 573.414062 377.695312 564.019531 377.695312 " fill-opacity="1" fill-rule="nonzero"/></g><g clip-path="url(#60834ce0cd)"><path fill="#000000" d="M 256.445312 377.695312 C 238.765625 377.695312 221.632812 389.753906 214.261719 406.117188 C 213.027344 408.8125 212.085938 411.632812 211.425781 414.550781 C 211.328125 415.054688 211.222656 415.558594 211.121094 416.0625 C 210.683594 418.425781 210.484375 420.738281 210.5 422.984375 C 210.535156 430.011719 212.726562 436.40625 216.910156 441.429688 C 222.269531 447.859375 230.402344 451.398438 239.796875 451.398438 C 257.472656 451.398438 274.609375 439.320312 281.976562 422.984375 C 283.207031 420.28125 284.15625 417.449219 284.808594 414.550781 L 285.113281 413.03125 C 285.554688 410.667969 285.757812 408.355469 285.742188 406.117188 C 285.707031 399.0625 283.511719 392.671875 279.328125 387.648438 C 273.964844 381.21875 265.835938 377.695312 256.445312 377.695312 " fill-opacity="1" fill-rule="nonzero"/></g><g fill="#000000" fill-opacity="1"><g transform="translate(352.499985, 317.313101)"><g><path d="M 10.78125 -1.71875 L 10.671875 -1.71875 C 9.773438 -0.414062 8.4375 0.234375 6.65625 0.234375 C 4.976562 0.234375 3.671875 -0.335938 2.734375 -1.484375 C 1.804688 -2.628906 1.34375 -4.257812 1.34375 -6.375 C 1.34375 -8.488281 1.8125 -10.128906 2.75 -11.296875 C 3.6875 -12.460938 4.988281 -13.046875 6.65625 -13.046875 C 8.394531 -13.046875 9.726562 -12.414062 10.65625 -11.15625 L 10.8125 -11.15625 L 10.71875 -12.078125 L 10.671875 -12.984375 L 10.671875 -18.203125 L 12.625 -18.203125 L 12.625 0 L 11.046875 0 Z M 6.90625 -1.390625 C 8.226562 -1.390625 9.1875 -1.75 9.78125 -2.46875 C 10.375 -3.195312 10.671875 -4.363281 10.671875 -5.96875 L 10.671875 -6.375 C 10.671875 -8.1875 10.367188 -9.476562 9.765625 -10.25 C 9.160156 -11.03125 8.195312 -11.421875 6.875 -11.421875 C 5.738281 -11.421875 4.867188 -10.976562 4.265625 -10.09375 C 3.660156 -9.207031 3.359375 -7.957031 3.359375 -6.34375 C 3.359375 -4.707031 3.65625 -3.472656 4.25 -2.640625 C 4.851562 -1.804688 5.738281 -1.390625 6.90625 -1.390625 Z M 6.90625 -1.390625 "/></g></g><g transform="translate(367.182173, 317.313101)"><g><path d="M 10.328125 -3.5 C 10.328125 -2.300781 9.878906 -1.378906 8.984375 -0.734375 C 8.097656 -0.0859375 6.851562 0.234375 5.25 0.234375 C 3.550781 0.234375 2.226562 -0.0351562 1.28125 -0.578125 L 1.28125 -2.375 C 1.894531 -2.0625 2.550781 -1.816406 3.25 -1.640625 C 3.957031 -1.460938 4.640625 -1.375 5.296875 -1.375 C 6.304688 -1.375 7.082031 -1.535156 7.625 -1.859375 C 8.175781 -2.179688 8.453125 -2.671875 8.453125 -3.328125 C 8.453125 -3.828125 8.234375 -4.253906 7.796875 -4.609375 C 7.367188 -4.960938 6.53125 -5.382812 5.28125 -5.875 C 4.082031 -6.3125 3.234375 -6.695312 2.734375 -7.03125 C 2.234375 -7.363281 1.859375 -7.738281 1.609375 -8.15625 C 1.359375 -8.582031 1.234375 -9.085938 1.234375 -9.671875 C 1.234375 -10.710938 1.660156 -11.535156 2.515625 -12.140625 C 3.367188 -12.742188 4.535156 -13.046875 6.015625 -13.046875 C 7.390625 -13.046875 8.738281 -12.765625 10.0625 -12.203125 L 9.375 -10.625 C 8.082031 -11.15625 6.914062 -11.421875 5.875 -11.421875 C 4.945312 -11.421875 4.25 -11.273438 3.78125 -10.984375 C 3.320312 -10.703125 3.09375 -10.304688 3.09375 -9.796875 C 3.09375 -9.453125 3.175781 -9.160156 3.34375 -8.921875 C 3.519531 -8.679688 3.800781 -8.453125 4.1875 -8.234375 C 4.582031 -8.015625 5.332031 -7.695312 6.4375 -7.28125 C 7.957031 -6.726562 8.984375 -6.171875 9.515625 -5.609375 C 10.054688 -5.046875 10.328125 -4.34375 10.328125 -3.5 Z M 10.328125 -3.5 "/></g></g></g></svg>